<svg xmlns="http://www.w3.org/2000/svg" width="1200" height="630" viewBox="0 0 1200 630">
  <rect width="1200" height="630" fill="#FAF7F2"/>
  <!-- soft atmosphere -->
  <circle cx="1080" cy="-40" r="320" fill="#DCEBDD" opacity="0.6"/>
  <circle cx="60" cy="40" r="220" fill="#FCE4B6" opacity="0.45"/>

  <!-- mark -->
  <g transform="translate(96,150)">
    <rect width="120" height="120" rx="28" fill="#1B5E20"/>
    <path d="M42 22 V98" stroke="#FAF7F2" stroke-width="11" stroke-linecap="round"/>
    <path d="M42 28 H72 a19 19 0 0 1 0 38 H46" stroke="#FAF7F2" stroke-width="11" stroke-linecap="round" fill="none"/>
    <path d="M42 62 H76 a19 19 0 0 1 0 38 H42" stroke="#DCEBDD" stroke-width="11" stroke-linecap="round" fill="none"/>
    <circle cx="92" cy="45" r="11" fill="#F4A724"/>
  </g>
  <text x="244" y="232" font-family="Georgia, 'Times New Roman', serif" font-size="64" font-weight="700" fill="#14210F">Botride</text>

  <!-- tagline -->
  <text x="96" y="380" font-family="Georgia, serif" font-size="76" font-weight="700" fill="#14210F">Towards automated</text>
  <text x="96" y="466" font-family="Georgia, serif" font-size="76" font-weight="700" fill="#1B5E20">fare collection.</text>

  <!-- footer strip with route motif + domain -->
  <rect x="0" y="556" width="1200" height="74" fill="#1B5E20"/>
  <g transform="translate(96,593)">
    <circle cx="0" cy="0" r="6" fill="#F4A724"/>
    <rect x="6" y="-1.5" width="120" height="3" fill="#F4A724" opacity="0.7"/>
    <circle cx="132" cy="0" r="6" fill="#F4A724"/>
    <rect x="138" y="-1.5" width="120" height="3" fill="#F4A724" opacity="0.7"/>
    <circle cx="264" cy="0" r="6" fill="#F4A724"/>
  </g>
  <text x="1104" y="601" text-anchor="end" font-family="Georgia, serif" font-size="28" fill="#DCEBDD">botride.cseco.co.ke</text>
</svg>
